<?xml version="1.0" encoding="utf-8"?>
<!-- Generator: Adobe Illustrator 15.0.0, SVG Export Plug-In . SVG Version: 6.00 Build 0)  -->
<!DOCTYPE svg PUBLIC "-//W3C//DTD SVG 1.1//EN" "http://www.w3.org/Graphics/SVG/1.1/DTD/svg11.dtd">
<svg version="1.1" xmlns="http://www.w3.org/2000/svg" xmlns:xlink="http://www.w3.org/1999/xlink" x="0px" y="0px" width="500px"
	 height="379px" viewBox="0 0 500 379" enable-background="new 0 0 500 379" xml:space="preserve">
<g id="Layer_1">
</g>
<g id="Layer_2">
	<path fill="#FFFFFF" d="M326.199,76.796c-14.931-8.214-27.649-11.636-42.617-13.637c-4.17-0.558-16.673-3.317-21.308,1.279
		c-3.717,3.685-2.991,8.542,0,11.506c4.146,4.11,14.649,2.561,19.816,3.196c19.598,2.41,41.051,11.219,59.663,29.832
		c19.089,19.088,27.298,40.62,29.831,59.663c0.75,5.631-0.791,15.865,3.41,20.03c1.74,1.726,5.39,3.364,8.098,2.132
		c7.455-3.4,5.955-10.447,5.539-16.195c-1.968-27.263-12.615-57.377-40.912-82.25C341.208,86.626,333.737,80.943,326.199,76.796z
		 M293.597,100.448c-4.838-1.494-9.828-2.724-15.342-3.409c-3.186-0.396-12.078-1.603-15.555,1.492
		c-4.191,3.729-3.555,8.853-0.426,11.933c3.151,3.102,9.262,2.442,13.637,2.983c14.266,1.764,27.963,6.358,41.551,19.817
		c13.871,13.738,18.412,27.5,20.03,41.338c0.556,4.753-0.583,10.349,2.771,13.851c2.725,2.845,7.489,4.442,11.719,0.213
		c4.281-4.282,2.305-11.872,1.492-17.687c-1.065-7.625-2.539-12.369-4.475-17.686c-4.213-11.564-11.561-24.394-24.292-35.372
		C314.269,108.92,305.134,104.011,293.597,100.448z M282.304,133.476c-5.449-1.555-15.242-4.948-20.242,0.213
		c-2.804,2.892-3.114,8.503,0.213,11.72c3.137,3.032,8.551,1.945,13.211,2.983c4.299,0.956,10.06,3.1,14.489,6.818
		c7.233,6.072,10.923,13.359,12.358,19.604c1.145,4.973,0.209,10.79,3.197,13.851c2.889,2.958,8.893,3.724,12.571-1.065
		c3.497-4.553,0.718-15.704-1.065-21.096c-2.385-7.205-8.698-16.492-14.063-21.308C296.2,139.116,290.37,135.779,282.304,133.476z
		 M258.438,188.452c4.982,6.759,15.057,10.087,23.014,2.13c6.678-6.678,5.845-16.997-2.345-22.799
		C265.892,158.418,248.973,175.613,258.438,188.452z"/>
	<g>
		<path fill="none" d="M374.995,188.665c-4.201-4.165-2.66-14.399-3.41-20.03c-2.533-19.043-10.742-40.575-29.831-59.663
			c-18.612-18.612-40.065-27.421-59.663-29.832c-5.167-0.636-15.671,0.914-19.816-3.196c-1.004-0.995-1.745-2.206-2.156-3.512
			c-43.854,4.365-80.099,34.974-92.726,75.868c2.439,1.24,4.118,3.768,4.118,6.686c0,4.122-3.341,7.475-7.457,7.5
			c-0.953,5.768-1.457,11.684-1.457,17.717c0,59.731,48.595,108.327,108.327,108.327c56.138,0,102.435-42.926,107.804-97.676
			C377.24,190.385,375.874,189.537,374.995,188.665z"/>
		<path fill="none" d="M168.51,154.985c0-2.482-2.02-4.502-4.502-4.502s-4.502,2.02-4.502,4.502s2.02,4.502,4.502,4.502
			S168.51,157.468,168.51,154.985z"/>
		<path fill="#FFFFFF" d="M388.632,174.602c-1.968-27.263-12.615-57.377-40.912-82.25c-6.512-5.725-13.982-11.408-21.521-15.555
			c-14.931-8.214-27.649-11.636-42.617-13.637c-4.17-0.558-16.673-3.317-21.308,1.279c-1.554,1.541-2.322,3.286-2.482,5.013
			c-45.09,4.499-82.347,35.995-95.294,78.058c-0.163-0.011-0.325-0.025-0.49-0.025c-4.137,0-7.502,3.365-7.502,7.502
			c0,3.109,1.901,5.782,4.602,6.918c-0.989,5.956-1.512,12.067-1.512,18.299c0,61.386,49.941,111.327,111.327,111.327
			c57.684,0,105.257-44.1,110.786-100.354c0.478-0.062,0.943-0.179,1.384-0.379C390.548,187.396,389.048,180.35,388.632,174.602z
			 M159.506,154.985c0-2.482,2.02-4.502,4.502-4.502s4.502,2.02,4.502,4.502s-2.02,4.502-4.502,4.502
			S159.506,157.468,159.506,154.985z M270.923,288.529c-59.732,0-108.327-48.596-108.327-108.327c0-6.033,0.504-11.95,1.457-17.717
			c4.116-0.024,7.457-3.378,7.457-7.5c0-2.918-1.679-5.446-4.118-6.686c12.627-40.894,48.872-71.502,92.726-75.868
			c0.411,1.306,1.152,2.517,2.156,3.512c4.146,4.11,14.649,2.561,19.816,3.196c19.598,2.41,41.051,11.219,59.663,29.832
			c19.089,19.088,27.298,40.62,29.831,59.663c0.75,5.631-0.791,15.865,3.41,20.03c0.879,0.872,2.245,1.72,3.731,2.188
			C373.357,245.604,327.061,288.529,270.923,288.529z"/>
	</g>
	<g>
		<path fill="none" d="M244.335,246.342c-2.021,0-3.665,1.645-3.665,3.665s1.644,3.665,3.665,3.665s3.665-1.645,3.665-3.665
			S246.356,246.342,244.335,246.342z"/>
		<path fill="none" d="M337.492,174.602c-1.618-13.838-6.159-27.601-20.03-41.338c-13.588-13.459-27.285-18.053-41.551-19.817
			c-4.375-0.541-10.485,0.119-13.637-2.983c-0.793-0.78-1.424-1.692-1.858-2.679c-35.392,5.112-62.676,35.633-62.676,72.417
			c0,28.911,16.855,53.956,41.252,65.837c1.216-1.633,3.155-2.697,5.342-2.697c3.675,0,6.665,2.99,6.665,6.665
			c0,0.199-0.013,0.396-0.03,0.591c6.349,1.802,13.036,2.787,19.953,2.787c36.815,0,67.354-27.331,72.429-62.765
			c-1.178-0.506-2.233-1.275-3.089-2.168C336.909,184.95,338.048,179.354,337.492,174.602z"/>
		<path fill="#FFFFFF" d="M353.474,170.979c-1.065-7.625-2.539-12.369-4.475-17.686c-4.213-11.564-11.561-24.394-24.292-35.372
			c-10.438-9.001-19.573-13.91-31.11-17.473c-4.838-1.494-9.828-2.724-15.342-3.409c-3.186-0.396-12.078-1.603-15.555,1.492
			c-2.131,1.896-3.009,4.151-2.951,6.315c-36.728,5.423-65.009,37.145-65.009,75.356c0,30.138,17.593,56.241,43.046,68.588
			c-0.073,0.396-0.117,0.801-0.117,1.217c0,3.675,2.99,6.665,6.665,6.665c2.415,0,4.527-1.295,5.696-3.224
			c6.645,1.898,13.646,2.937,20.892,2.937c38.254,0,70.002-28.346,75.372-65.134c1.853,0.009,3.821-0.721,5.687-2.586
			C356.263,184.383,354.286,176.793,353.474,170.979z M244.335,253.672c-2.021,0-3.665-1.645-3.665-3.665s1.644-3.665,3.665-3.665
			s3.665,1.645,3.665,3.665S246.356,253.672,244.335,253.672z M270.923,253.385c-6.917,0-13.604-0.985-19.953-2.787
			c0.018-0.195,0.03-0.392,0.03-0.591c0-3.675-2.99-6.665-6.665-6.665c-2.188,0-4.126,1.064-5.342,2.697
			c-24.397-11.881-41.252-36.926-41.252-65.837c0-36.785,27.284-67.305,62.676-72.417c0.435,0.987,1.065,1.898,1.858,2.679
			c3.151,3.102,9.262,2.442,13.637,2.983c14.266,1.764,27.963,6.358,41.551,19.817c13.871,13.738,18.412,27.5,20.03,41.338
			c0.556,4.753-0.583,10.349,2.771,13.851c0.855,0.893,1.911,1.662,3.089,2.168C338.277,226.054,307.738,253.385,270.923,253.385z"
			/>
	</g>
	<g>
		<path fill="none" d="M305.53,188.665c-2.988-3.061-2.053-8.878-3.197-13.851c-1.436-6.244-5.125-13.531-12.358-19.604
			c-4.43-3.719-10.19-5.862-14.489-6.818c-4.66-1.038-10.074,0.049-13.211-2.983c-1.169-1.13-1.88-2.558-2.2-4.057
			c-16.992,4.751-29.495,20.363-29.495,38.85c0,22.246,18.098,40.344,40.344,40.344c18.545,0,34.197-12.581,38.896-29.654
			C308.142,190.578,306.616,189.776,305.53,188.665z"/>
		<path fill="#FFFFFF" d="M317.036,166.504c-2.385-7.205-8.698-16.492-14.063-21.308c-6.772-6.08-12.603-9.417-20.669-11.72
			c-5.449-1.555-15.242-4.948-20.242,0.213c-1.149,1.186-1.871,2.83-2.104,4.577c-18.608,4.869-32.379,21.823-32.379,41.936
			c0,23.899,19.444,43.344,43.344,43.344c20.215,0,37.239-13.913,42.009-32.665c1.863-0.355,3.702-1.37,5.17-3.281
			C321.599,183.047,318.819,171.896,317.036,166.504z M270.923,220.546c-22.246,0-40.344-18.098-40.344-40.344
			c0-18.487,12.503-34.099,29.495-38.85c0.32,1.5,1.031,2.927,2.2,4.057c3.137,3.032,8.551,1.945,13.211,2.983
			c4.299,0.956,10.06,3.1,14.489,6.818c7.233,6.072,10.923,13.359,12.358,19.604c1.145,4.973,0.209,10.79,3.197,13.851
			c1.086,1.111,2.611,1.913,4.288,2.227C305.12,207.965,289.468,220.546,270.923,220.546z"/>
	</g>
	<path fill="#FFFFFF" d="M279.107,167.783c8.189,5.802,9.022,16.121,2.345,22.799c-7.957,7.957-18.031,4.629-23.014-2.13
		C248.973,175.613,265.892,158.418,279.107,167.783z"/>
</g>
</svg>
