<?xml version="1.0" encoding="utf-8"?>
<!-- Generator: Adobe Illustrator 15.0.0, SVG Export Plug-In . SVG Version: 6.00 Build 0)  -->
<!DOCTYPE svg PUBLIC "-//W3C//DTD SVG 1.1//EN" "http://www.w3.org/Graphics/SVG/1.1/DTD/svg11.dtd">
<svg version="1.1" xmlns="http://www.w3.org/2000/svg" xmlns:xlink="http://www.w3.org/1999/xlink" x="0px" y="0px"
	 width="242.683px" height="239.023px" viewBox="0 0 242.683 239.023" enable-background="new 0 0 242.683 239.023"
	 xml:space="preserve">
<g id="Layer_1">
	<circle fill="none" stroke="#000000" stroke-width="3" stroke-miterlimit="10" cx="121.996" cy="121.974" r="41.844"/>
	<circle fill="none" stroke="#000000" stroke-width="3" stroke-miterlimit="10" cx="121.996" cy="121.974" r="74.683"/>
	<circle fill="none" stroke="#000000" stroke-width="3" stroke-miterlimit="10" cx="121.996" cy="121.974" r="109.827"/>
	<circle fill="#FFFFFF" stroke="#000000" stroke-width="3" stroke-miterlimit="10" cx="15.081" cy="96.757" r="6.002"/>
	<circle fill="#FFFFFF" stroke="#000000" stroke-width="3" stroke-miterlimit="10" cx="95.408" cy="191.778" r="5.165"/>
</g>
<g id="Layer_2">
	<g>
		<g>
			<path fill-rule="evenodd" clip-rule="evenodd" fill="#FFFFFF" d="M177.272,18.567c-14.931-8.214-27.649-11.636-42.617-13.637
				c-4.17-0.558-16.673-3.317-21.308,1.279c-3.717,3.685-2.991,8.542,0,11.506c4.146,4.11,14.649,2.561,19.816,3.196
				c19.598,2.41,41.051,11.219,59.663,29.832c19.089,19.088,27.298,40.62,29.831,59.663c0.75,5.631-0.791,15.865,3.41,20.03
				c1.74,1.726,5.39,3.364,8.098,2.132c7.455-3.4,5.955-10.447,5.539-16.195c-1.968-27.263-12.615-57.377-40.912-82.25
				C192.281,28.398,184.811,22.714,177.272,18.567z M144.67,42.22c-4.838-1.494-9.828-2.724-15.342-3.409
				c-3.186-0.396-12.078-1.603-15.555,1.492c-4.191,3.729-3.555,8.853-0.426,11.933c3.151,3.102,9.262,2.442,13.637,2.983
				c14.266,1.764,27.963,6.358,41.551,19.817c13.871,13.738,18.412,27.5,20.03,41.338c0.556,4.753-0.583,10.349,2.771,13.851
				c2.725,2.845,7.489,4.442,11.719,0.213c4.281-4.282,2.305-11.872,1.492-17.687c-1.065-7.625-2.539-12.369-4.475-17.686
				c-4.213-11.564-11.561-24.394-24.292-35.372C165.342,50.691,156.207,45.783,144.67,42.22z M133.377,75.248
				c-5.449-1.555-15.242-4.948-20.242,0.213c-2.804,2.892-3.114,8.503,0.213,11.72c3.137,3.032,8.551,1.945,13.211,2.983
				c4.299,0.956,10.06,3.1,14.489,6.818c7.233,6.072,10.923,13.359,12.358,19.604c1.145,4.973,0.209,10.79,3.197,13.851
				c2.889,2.958,8.893,3.724,12.571-1.065c3.497-4.553,0.718-15.704-1.065-21.096c-2.385-7.205-8.698-16.492-14.063-21.308
				C147.273,80.888,141.443,77.55,133.377,75.248z M109.512,130.224c4.982,6.759,15.057,10.087,23.014,2.13
				c6.678-6.678,5.845-16.997-2.345-22.799C116.965,100.189,100.046,117.385,109.512,130.224z"/>
			<path fill-rule="evenodd" clip-rule="evenodd" d="M198.793,34.123c28.297,24.873,38.944,54.988,40.912,82.25
				c0.416,5.748,1.916,12.795-5.539,16.195c-2.708,1.232-6.357-0.406-8.098-2.132c-4.201-4.165-2.66-14.399-3.41-20.03
				c-2.533-19.043-10.742-40.575-29.831-59.663c-18.612-18.612-40.065-27.421-59.663-29.832c-5.167-0.636-15.671,0.914-19.816-3.196
				c-2.991-2.965-3.717-7.822,0-11.506c4.635-4.596,17.138-1.836,21.308-1.279c14.968,2.001,27.687,5.423,42.617,13.637
				C184.811,22.714,192.281,28.398,198.793,34.123z"/>
			<path fill-rule="evenodd" clip-rule="evenodd" d="M175.78,59.693c12.731,10.978,20.079,23.807,24.292,35.372
				c1.936,5.316,3.409,10.061,4.475,17.686c0.812,5.814,2.789,13.404-1.492,17.687c-4.229,4.229-8.994,2.632-11.719-0.213
				c-3.354-3.502-2.215-9.098-2.771-13.851c-1.618-13.838-6.159-27.601-20.03-41.338c-13.588-13.459-27.285-18.053-41.551-19.817
				c-4.375-0.541-10.485,0.119-13.637-2.983c-3.129-3.08-3.766-8.203,0.426-11.933c3.477-3.094,12.369-1.888,15.555-1.492
				c5.514,0.686,10.504,1.915,15.342,3.409C156.207,45.783,165.342,50.691,175.78,59.693z"/>
			<path fill-rule="evenodd" clip-rule="evenodd" d="M154.046,86.967c5.365,4.816,11.679,14.103,14.063,21.308
				c1.783,5.392,4.562,16.543,1.065,21.096c-3.679,4.789-9.683,4.023-12.571,1.065c-2.988-3.061-2.053-8.878-3.197-13.851
				c-1.436-6.244-5.125-13.531-12.358-19.604c-4.43-3.719-10.19-5.862-14.489-6.818c-4.66-1.038-10.074,0.049-13.211-2.983
				c-3.327-3.216-3.017-8.828-0.213-11.72c5-5.161,14.793-1.769,20.242-0.213C141.443,77.55,147.273,80.888,154.046,86.967z"/>
			<path fill-rule="evenodd" clip-rule="evenodd" d="M130.181,109.555c8.189,5.802,9.022,16.121,2.345,22.799
				c-7.957,7.957-18.031,4.629-23.014-2.13C100.046,117.385,116.965,100.189,130.181,109.555z"/>
		</g>
	</g>
</g>
</svg>
